<svg id="Layer_2" data-name="Layer 2" xmlns="http://www.w3.org/2000/svg" viewBox="0 0 2388 1668"><defs><style>.cls-1{fill:#2e82af;}.cls-2{fill:#39a2da;}.cls-3{opacity:0.36;}.cls-4{fill:#d1e5f0;}.cls-5{fill:#9cd0ed;}.cls-6{fill:#215672;}</style></defs><title>Batch 2-1</title><rect class="cls-1" x="829.08" y="286.68" width="642" height="562" rx="25.65"/><rect class="cls-2" x="883.5" y="334.32" width="540.74" height="473.36" rx="11.2"/><g class="cls-3"><path class="cls-4" d="M1068.77,445.7l-224,290C820.46,767.22,842.92,813,882.74,813h447.94c39.82,0,62.28-45.73,37.94-77.24l-224-290A48,48,0,0,0,1068.77,445.7Z"/><circle class="cls-4" cx="1305.13" cy="487.26" r="37"/></g><path class="cls-4" d="M402.84,1310.65l81.52-162.71A2289.24,2289.24,0,0,0,638,754.06L685.5,588.6a28.89,28.89,0,0,1,35.38-19.89l542.55,148.38a28.87,28.87,0,0,1,20.2,35.59l-57.27,205.81a1818.2,1818.2,0,0,1-141.65,357.39L995.9,1485.13a28.88,28.88,0,0,1-33.19,14.44L421,1351.44A28.89,28.89,0,0,1,402.84,1310.65Z"/><path class="cls-5" d="M1882.1,1178.72l-51.56-156.52a2125.62,2125.62,0,0,1-86.68-375.13L1722.35,491c-2-14.34-14.67-23.84-28.5-21.33l-491.91,89.27c-14,2.54-23.84,16.42-22,31l25.19,194a1686.85,1686.85,0,0,0,80.59,340.57l57.15,163.17a24.13,24.13,0,0,0,27.25,16.13l491.11-89.13C1877.22,1211.72,1887.27,1194.4,1882.1,1178.72Z"/><path class="cls-2" d="M1015.46,1401.33V1246.66a23.66,23.66,0,0,1,23.67-23.66H1261a23.66,23.66,0,0,1,23.67,23.66V1425H1039.13A23.67,23.67,0,0,1,1015.46,1401.33Z"/><path class="cls-2" d="M606.5,650.4a387.18,387.18,0,0,0,202-124.07,1.61,1.61,0,0,1,2.84,1.09l-1.12,32.73a1.61,1.61,0,0,0,1.43,1.66c7.3.78,39,4.24,36.83,5a576.17,576.17,0,0,1-223.74,147.4,1.62,1.62,0,0,1-1.77-.46h0a1.6,1.6,0,0,1-.2-1.84l19.08-34.59a1.61,1.61,0,0,0-.56-2.15L606,653.34A1.61,1.61,0,0,1,606.5,650.4Z"/><rect class="cls-4" x="1333.63" y="837.68" width="364" height="42" rx="21" transform="translate(-131.43 291.53) rotate(-10.53)"/><rect class="cls-4" x="1348.67" y="918.6" width="364" height="42" rx="21" transform="translate(-145.97 295.65) rotate(-10.53)"/><rect class="cls-4" x="1365.6" y="1009.65" width="364" height="42" rx="21" transform="translate(-162.33 300.28) rotate(-10.53)"/><rect class="cls-4" x="1059.08" y="1281" width="182" height="16.65" rx="7.46"/><rect class="cls-4" x="1059.08" y="1313.63" width="182" height="16.65" rx="7.46"/><rect class="cls-4" x="1059.08" y="1350.34" width="182" height="16.65" rx="7.46"/><path class="cls-5" d="M1015.46,1401.92v-22.87h307a45.94,45.94,0,0,1-45.94,46h-238A23.07,23.07,0,0,1,1015.46,1401.92Z"/><rect class="cls-5" x="929.98" y="620.96" width="42" height="364" rx="21" transform="translate(-92.42 1481.5) rotate(-73.21)"/><rect class="cls-5" x="906.21" y="699.76" width="42" height="364" rx="21" transform="translate(-184.77 1514.78) rotate(-73.21)"/><rect class="cls-5" x="879.46" y="788.42" width="42" height="364" rx="21" transform="translate(-288.67 1552.23) rotate(-73.21)"/><rect class="cls-4" x="1422.6" y="559.98" width="250" height="158.68" rx="18.24" transform="translate(-90.79 293.68) rotate(-10.53)"/><rect class="cls-5" x="769.28" y="990.42" width="158.68" height="250" rx="18.24" transform="translate(-464.37 1605.71) rotate(-73.21)"/><path class="cls-6" d="M1207.19,1218.73A54,54,0,0,1,1157,1272.6c-1.24.09-2.5.13-3.76.13a54,54,0,0,1,0-108c1.26,0,2.52,0,3.76.13A54,54,0,0,1,1207.19,1218.73Z"/><ellipse class="cls-1" cx="1156.95" cy="1218.73" rx="50.24" ry="53.87"/><path class="cls-2" d="M1479.87,596.54l60.76-64.83a5.06,5.06,0,0,0-1.24-7.89l-27.26-15.08a5,5,0,0,0-7.11,2.47l-33.51,79.91A5.06,5.06,0,0,0,1479.87,596.54Z"/><ellipse class="cls-1" cx="1523.3" cy="520.85" rx="43.49" ry="40.09"/></svg>