<svg id="Layer_2" data-name="Layer 2" xmlns="http://www.w3.org/2000/svg" xmlns:xlink="http://www.w3.org/1999/xlink" viewBox="0 0 2388 1668"><defs><style>.cls-1{fill:none;}.cls-2{fill:#9cd0ed;}.cls-3{clip-path:url(#clip-path);}.cls-4{fill:#d1e5f0;}.cls-5{fill:#39a2da;}.cls-6{fill:#215673;}.cls-7{fill:#2e82af;}.cls-8{opacity:0.62;}</style><clipPath id="clip-path"><rect class="cls-1" x="554.46" y="697.6" width="405.82" height="450.95"/></clipPath></defs><title>Batch 2-1</title><path class="cls-2" d="M507.75,1195.48v-617H853.28v731.2H621.94A114.19,114.19,0,0,1,507.75,1195.48Z"/><g class="cls-3"><path class="cls-4" d="M138.31,600.54a26.75,26.75,0,1,1,26.75,26.75,26.75,26.75,0,0,1-26.75-26.75"/><path class="cls-4" d="M213.39,603.4v-5.73a25,25,0,0,1,25-25H518.32a25,25,0,0,1,25,25v5.73a25,25,0,0,1-25,25H238.39a25,25,0,0,1-25-25"/><path class="cls-4" d="M554.46,600.54a26.76,26.76,0,1,1,26.75,26.75,26.75,26.75,0,0,1-26.75-26.75"/><path class="cls-4" d="M629.54,603.4v-5.73a25,25,0,0,1,25-25H934.47a25,25,0,0,1,25,25v5.73a25,25,0,0,1-25,25H654.54a25,25,0,0,1-25-25"/><path class="cls-4" d="M970.62,600.54a26.75,26.75,0,1,1,26.75,26.75,26.74,26.74,0,0,1-26.75-26.75"/><path class="cls-4" d="M1045.7,603.4v-5.73a25,25,0,0,1,25-25h279.92a25,25,0,0,1,25,25v5.73a25,25,0,0,1-25,25H1070.7a25,25,0,0,1-25-25"/><path class="cls-4" d="M138.31,725.46a26.75,26.75,0,1,1,26.75,26.76,26.75,26.75,0,0,1-26.75-26.76"/><path class="cls-4" d="M213.39,728.33V722.6a25,25,0,0,1,25-25H518.32a25,25,0,0,1,25,25v5.73a25,25,0,0,1-25,25H238.39a25,25,0,0,1-25-25"/><path class="cls-4" d="M554.46,725.46a26.76,26.76,0,1,1,26.75,26.76,26.75,26.75,0,0,1-26.75-26.76"/><path class="cls-4" d="M629.54,728.33V722.6a25,25,0,0,1,25-25H934.47a25,25,0,0,1,25,25v5.73a25,25,0,0,1-25,25H654.54a25,25,0,0,1-25-25"/><path class="cls-4" d="M970.62,725.46a26.75,26.75,0,1,1,26.75,26.76,26.75,26.75,0,0,1-26.75-26.76"/><path class="cls-4" d="M1045.7,728.33V722.6a25,25,0,0,1,25-25h279.92a25,25,0,0,1,25,25v5.73a25,25,0,0,1-25,25H1070.7a25,25,0,0,1-25-25"/><path class="cls-4" d="M138.31,850.39a26.75,26.75,0,1,1,26.75,26.75,26.75,26.75,0,0,1-26.75-26.75"/><path class="cls-4" d="M213.39,853.26v-5.73a25,25,0,0,1,25-25H518.32a25,25,0,0,1,25,25v5.73a25,25,0,0,1-25,25H238.39a25,25,0,0,1-25-25"/><path class="cls-4" d="M554.46,850.39a26.76,26.76,0,1,1,26.75,26.75,26.75,26.75,0,0,1-26.75-26.75"/><path class="cls-4" d="M629.54,853.26v-5.73a25,25,0,0,1,25-25H934.47a25,25,0,0,1,25,25v5.73a25,25,0,0,1-25,25H654.54a25,25,0,0,1-25-25"/><path class="cls-4" d="M970.62,850.39a26.75,26.75,0,1,1,26.75,26.75,26.75,26.75,0,0,1-26.75-26.75"/><path class="cls-4" d="M1045.7,853.26v-5.73a25,25,0,0,1,25-25h279.92a25,25,0,0,1,25,25v5.73a25,25,0,0,1-25,25H1070.7a25,25,0,0,1-25-25"/><path class="cls-4" d="M138.31,975.32a26.75,26.75,0,1,1,26.75,26.75,26.75,26.75,0,0,1-26.75-26.75"/><path class="cls-4" d="M213.39,978.19v-5.73a25,25,0,0,1,25-25H518.32a25,25,0,0,1,25,25v5.73a25,25,0,0,1-25,25H238.39a25,25,0,0,1-25-25"/><path class="cls-4" d="M554.46,975.32a26.76,26.76,0,1,1,26.75,26.75,26.75,26.75,0,0,1-26.75-26.75"/><path class="cls-4" d="M629.54,978.19v-5.73a25,25,0,0,1,25-25H934.47a25,25,0,0,1,25,25v5.73a25,25,0,0,1-25,25H654.54a25,25,0,0,1-25-25"/><path class="cls-4" d="M970.62,975.32a26.75,26.75,0,1,1,26.75,26.75,26.75,26.75,0,0,1-26.75-26.75"/><path class="cls-4" d="M1045.7,978.19v-5.73a25,25,0,0,1,25-25h279.92a25,25,0,0,1,25,25v5.73a25,25,0,0,1-25,25H1070.7a25,25,0,0,1-25-25"/><path class="cls-4" d="M138.31,1100.25A26.75,26.75,0,1,1,165.06,1127a26.75,26.75,0,0,1-26.75-26.75"/><path class="cls-4" d="M213.39,1103.11v-5.73a25,25,0,0,1,25-25H518.32a25,25,0,0,1,25,25v5.73a25,25,0,0,1-25,25H238.39a25,25,0,0,1-25-25"/><path class="cls-4" d="M554.46,1100.25A26.76,26.76,0,1,1,581.21,1127a26.75,26.75,0,0,1-26.75-26.75"/><path class="cls-4" d="M629.54,1103.11v-5.73a25,25,0,0,1,25-25H934.47a25,25,0,0,1,25,25v5.73a25,25,0,0,1-25,25H654.54a25,25,0,0,1-25-25"/><path class="cls-4" d="M970.62,1100.25A26.75,26.75,0,1,1,997.37,1127a26.74,26.74,0,0,1-26.75-26.75"/><path class="cls-4" d="M1045.7,1103.11v-5.73a25,25,0,0,1,25-25h279.92a25,25,0,0,1,25,25v5.73a25,25,0,0,1-25,25H1070.7a25,25,0,0,1-25-25"/><path class="cls-4" d="M138.31,1225.17a26.75,26.75,0,1,1,26.75,26.76,26.75,26.75,0,0,1-26.75-26.76"/><path class="cls-4" d="M213.39,1228v-5.73a25,25,0,0,1,25-25H518.32a25,25,0,0,1,25,25V1228a25,25,0,0,1-25,25H238.39a25,25,0,0,1-25-25"/><path class="cls-4" d="M554.46,1225.17a26.76,26.76,0,1,1,26.75,26.76,26.75,26.75,0,0,1-26.75-26.76"/><path class="cls-4" d="M629.54,1228v-5.73a25,25,0,0,1,25-25H934.47a25,25,0,0,1,25,25V1228a25,25,0,0,1-25,25H654.54a25,25,0,0,1-25-25"/><path class="cls-4" d="M970.62,1225.17a26.75,26.75,0,1,1,26.75,26.76,26.75,26.75,0,0,1-26.75-26.76"/><path class="cls-4" d="M1045.7,1228v-5.73a25,25,0,0,1,25-25h279.92a25,25,0,0,1,25,25V1228a25,25,0,0,1-25,25H1070.7a25,25,0,0,1-25-25"/></g><path class="cls-5" d="M433,622.23V608.7a86.79,86.79,0,0,1,86.79-86.79H813.32V622.23Z"/><path class="cls-6" d="M779.88,1320.67V289.61a80.79,80.79,0,0,1,80.79-80.79h520a123.73,123.73,0,0,1,123.73,123.72v949.24a119.69,119.69,0,0,1-119.69,119.68h-524A80.79,80.79,0,0,1,779.88,1320.67Z"/><rect class="cls-7" x="813.32" y="208.82" width="691.07" height="1192.65" rx="69.1"/><rect class="cls-4" x="853.28" y="248.03" width="613.04" height="1119.08" rx="33.98"/><path class="cls-5" d="M960.28,259.7v-25h399v25a24,24,0,0,1-24,24h-351A24,24,0,0,1,960.28,259.7Z"/><path class="cls-5" d="M970.2,757.3l37.92-50.92a15,15,0,0,0-12.06-24H920.22a15,15,0,0,0-12.05,24l37.91,50.92A15,15,0,0,0,970.2,757.3Z"/><path class="cls-5" d="M1169.61,521.91c-108.86,0-200.87,72.1-230.9,171.16h33.81A209.19,209.19,0,0,1,1169.61,554c115.48,0,209.11,93.63,209.11,209.12s-93.63,209.11-209.11,209.11A209.14,209.14,0,0,1,979.47,850.31H944.61c34.94,90.15,122.5,154.07,225,154.07,133.22,0,241.23-108,241.23-241.24S1302.83,521.91,1169.61,521.91Z"/><rect class="cls-5" x="1139.05" y="604.76" width="34.6" height="200.63" rx="14.97"/><rect class="cls-5" x="1197.75" y="745.21" width="34.6" height="200.63" rx="14.97" transform="translate(-241.99 1106.82) rotate(-45)"/><path class="cls-7" d="M1288,1425.23l2-335.71c.1-17.32,18.42-31.3,40.89-31.21l583.61,2.46c22.45.09,40.55,14.19,40.45,31.5l-2,335.7c-.11,17.33-18.42,31.31-40.9,31.21l-583.6-2.45C1306,1456.63,1287.88,1442.53,1288,1425.23Z"/><path class="cls-5" d="M1955,1078.26l-1.52,254.27-.58,96.34c-.07,9.58-10.19,17.3-22.62,17.26l-604.26-2.55c-12.41,0-22.42-7.85-22.37-17.41l2.11-350.61c.06-9.58,10.19-17.3,22.61-17.26l93.29.39,511,2.15C1945.08,1060.9,1955.09,1068.7,1955,1078.26Z"/><path class="cls-2" d="M1953.51,1332.53l-.58,96.34c-.07,9.58-10.19,17.3-22.62,17.26l-604.26-2.55c-12.41,0-22.42-7.85-22.37-17.41l2.11-350.61c.06-9.58,10.19-17.3,22.61-17.26l93.29.39c-1,37.19,18.16,75.63,48.54,103.16,43.28,39.24,104.82,59.85,166.11,72.38s124.48,18.24,184.83,33.82C1870.23,1280.72,1918.54,1301.1,1953.51,1332.53Z"/><g class="cls-8"><circle class="cls-4" cx="1388.88" cy="1364.4" r="39.01"/><circle class="cls-5" cx="1427.9" cy="1364.4" r="39.01"/></g><rect class="cls-4" x="1394.08" y="1239.95" width="454.77" height="24.52" rx="10.61"/><rect class="cls-2" x="1768.59" y="1087.88" width="160.51" height="33.44" rx="10"/></svg>