<svg width="270" height="238" viewBox="0 0 270 238" fill="none" xmlns="http://www.w3.org/2000/svg">
<path fill-rule="evenodd" clip-rule="evenodd" d="M217 14C219.379 14 221.48 12.8135 222.745 11H259C260.657 11 262 12.3431 262 14V227.997C262 229.655 260.655 230.999 258.997 230.997L223.997 230.964C222.341 230.963 221 229.62 221 227.964V182.915C221 181.901 220.488 180.956 219.64 180.403L183.272 156.668C182.274 156.017 180.986 156.018 179.989 156.67L171 162.553V73.8446C171 72.6737 170.324 71.609 169.267 71.1149L133.259 54.2813C132.488 53.9207 131.601 53.9062 130.818 54.2412L88.8223 72.2232C87.7172 72.6964 87 73.7864 87 74.9929V103.255C85.1865 104.52 84 106.621 84 109C84 112.866 87.134 116 91 116C94.866 116 98 112.866 98 109C98 106.621 96.8135 104.52 95 103.255V79.5C95 78.2935 95.9329 77.2537 97.038 76.7804L130.656 62.3841C131.439 62.049 132.326 62.0635 133.097 62.4242L161.056 75.4958C162.113 75.99 163 76.8292 163 78V83.5V89.5V101V124V167.788L137.047 184.77C135.982 185.467 135.34 186.655 135.34 187.928C135.34 190.928 138.67 192.729 141.18 191.086L180.948 165.062C181.362 164.791 181.898 164.791 182.312 165.062L211.629 184.246C212.476 184.8 212.987 185.744 212.987 186.756V234.998C212.987 236.655 214.33 237.998 215.987 237.998H266.998C268.655 237.998 269.998 236.655 269.998 234.998V6C269.998 4.34315 268.655 3 266.998 3H222.745C221.48 1.18652 219.379 0 217 0C213.134 0 210 3.13401 210 7C210 10.866 213.134 14 217 14ZM175.917 217H187.083C188.694 217 190 215.692 190 214.079V204.921C190 203.308 188.694 202 187.083 202H175.917C174.306 202 173 203.308 173 204.921V214.079C173 215.692 174.306 217 175.917 217Z" fill="#053742"/>
<path fill-rule="evenodd" clip-rule="evenodd" d="M197 14C200.866 14 204 10.866 204 7C204 3.13401 200.866 0 197 0C194.621 0 192.52 1.18652 191.255 3H3C1.34315 3 0 4.34315 0 6V234.998C0 236.655 1.34315 237.998 3 237.998H57.9722C59.629 237.998 60.9722 236.655 60.9722 234.998V132C60.9722 130.343 62.3153 129 63.9722 129H118.99C120.647 129 121.99 130.343 121.99 132V227.758C121.99 229.415 120.647 230.758 118.99 230.758H98C96.3431 230.758 95 229.415 95 227.758V147.745C96.8135 146.48 98 144.379 98 142C98 138.134 94.866 135 91 135C87.134 135 84 138.134 84 142C84 144.381 85.1884 146.484 87.0042 147.748L87.0398 234.999C87.0405 236.656 88.3834 237.998 90.0398 237.998H130H147.276C148.933 237.998 150.276 236.655 150.276 234.998V206.947C150.276 205.934 150.787 204.991 151.633 204.436L180.867 185.305C181.334 184.999 181.938 184.999 182.405 185.305L222.956 211.84C225.465 213.481 228.794 211.681 228.794 208.683C228.794 207.41 228.152 206.223 227.087 205.526L183.279 176.858C182.281 176.205 180.991 176.205 179.993 176.858L143.419 200.791C142.572 201.345 142.061 202.289 142.061 203.301V227.758C142.061 229.415 140.718 230.758 139.061 230.758H133C131.343 230.758 130 229.415 130 227.758V221.998V125C130 123.343 128.657 122 127 122H56C54.3431 122 53 123.343 53 125V128.797V135.595V149.19V176.379V228C53 229.657 51.6569 231 50 231H11C9.34315 231 8 229.657 8 228V120.731V65.596V38.0286V24.245V17.3531V14C8 12.3431 9.34315 11 11 11H191.255C192.52 12.8135 194.621 14 197 14Z" fill="#39A2DB"/>
</svg>
