<svg id="Layer_2" data-name="Layer 2" xmlns="http://www.w3.org/2000/svg" viewBox="0 0 2388 1668"><defs><style>.cls-1{fill:#9cd0ed;}.cls-2{fill:#39a2da;}.cls-3{fill:#215673;}.cls-4{fill:#d1e5f0;}</style></defs><title>Batch 2-1</title><rect class="cls-1" x="1446.35" y="296.32" width="629.27" height="629.27" rx="49.34"/><path class="cls-1" d="M1550.21,1005.26,1622.94,915a14.87,14.87,0,0,0-6.4-23.26l-69-25.61a14.86,14.86,0,0,0-20,13.45l-3.77,115.83C1523.32,1009.71,1541.26,1016.37,1550.21,1005.26Z"/><path class="cls-2" d="M1938.63,728.39a29.5,29.5,0,0,1-29.5,29.75H1613.46c-16.09,0-29.63-12.62-30.1-28.7-.27-9.32,2.55-15.84,6.87-20.39,22.63-23.8,36.38-54.65,36.38-87.49V574c0-60.9,54.57-110.27,121.88-110.27h25c67.32,0,121.88,49.37,121.88,110.27v47.89c0,32.92,13.65,64,36.4,87.77C1935.87,714,1938.63,720,1938.63,728.39Z"/><circle class="cls-2" cx="1760.98" cy="456.82" r="47.85"/><path class="cls-2" d="M594.24,1142.12c-18.82,16-25.52,43.89-16,66.69,8.12,19.45,27,37.56,21.77,57.66-3.15,12.1-15,20.67-27.71,23.09s-26-.39-38.19-4.89c-31.17-11.47-57.89-34.29-73.54-62.78s-20.08-62.4-12.19-93.31Z"/><path class="cls-2" d="M1222.1,1080.18c-7.63,28,4,60.19,27.71,76.88,20.26,14.24,49.89,20.23,57.86,43.68,4.8,14.1-1,30.26-11.5,40.81s-25,16.25-39.51,19.58a155.83,155.83,0,0,1-182.13-101.06Z"/><path class="cls-1" d="M1192.79,1166.21c-25.69,13.49-41.35,43.92-37.39,72.66,3.37,24.53,19.17,50.31,7.44,72.12-7.06,13.12-22.83,19.89-37.72,19.38s-28.92-7.22-41.24-15.58a155.84,155.84,0,0,1-50.1-202.18Z"/><path class="cls-2" d="M1714.44,796.6V780.25a9,9,0,0,1,9-9h75.07a9,9,0,0,1,9,9V796.6a33.65,33.65,0,0,1-33.64,33.65h-25.79A33.66,33.66,0,0,1,1714.44,796.6Z"/><path class="cls-1" d="M1336.66,999.12a201,201,0,0,1-59,142.55c-2.08,2.08-4.23,4.13-6.41,6.11a200.9,200.9,0,0,1-136.14,52.92H459.78a201.57,201.57,0,0,1-201.55-198.79c0-.93,0-1.87,0-2.79,0-111.33,90.26-201.58,201.58-201.58h675.3C1246.42,797.54,1336.66,887.79,1336.66,999.12Z"/><path class="cls-1" d="M1104.2,758.07c54-25.1,121.4-18.33,169.31,17s74.32,97.73,66.18,155.56c27.76-6.58,58.44,8,73.13,32.47s13.83,56.72.22,81.8-38.81,42.9-66.38,50.23-57.24,4.72-84.24-4.5Z"/><path class="cls-1" d="M323,915.8a118.32,118.32,0,0,1-67.74-164.19c9.22-18.71,24.56-35.58,44.67-41.14s44.78,3.42,52.27,22.9c10,26.06-12.75,55.9-3.93,82.39,4.46,13.41,16.08,22.87,26,33s19,23.43,16.28,37.3c-2,10.37-10.52,18.57-20.16,22.91S350,914.36,323,915.8Z"/><path class="cls-1" d="M336.37,1130c16.25,24,15.64,58.26-1.45,81.71-14.59,20-40.71,35.23-40.7,60,0,14.9,10.69,28.34,24,34.94s28.89,7.33,43.71,5.8A155.83,155.83,0,0,0,501.81,1158Z"/><path class="cls-2" d="M1088.8,755.39A341.18,341.18,0,0,0,950.55,926.83c-11.53,31.89-18,68.3-3.61,99,14.41,30.88,46.25,49.11,76.2,65.38,24.62,13.38,53.1,27.13,79.5,17.72,18.41-6.57,31.64-23.75,37.35-42.45s4.79-38.8,1.79-58.12c-7.3-47-26.59-94.62-14.81-140.75,4.79-18.74,14.5-35.86,20.14-54.36s6.59-40.15-4.94-55.67S1107.77,743.47,1088.8,755.39Z"/><path class="cls-2" d="M1312,1099.53c-27.17.8-54-11-73.46-30s-31.59-44.8-36.24-71.58c13.4,21.64,26.13,47.37,43.83,65.65S1286.72,1092.67,1312,1099.53Z"/><ellipse class="cls-2" cx="1404.15" cy="956.21" rx="29.4" ry="23.52"/><circle class="cls-3" cx="1263.87" cy="921.2" r="23.15"/><path class="cls-4" d="M969.87,797.54c-5.43,14.12-14.58,26.57-27.25,34.92-34.72,22.88-85.34,11.46-117.44,37.88-28,23.06-32.64,68.12-63.78,86.75-33.4,20-78-3.56-98.8-36.46s-26.45-72.88-41.27-108.87a155.39,155.39,0,0,0-6.72-14.22Z"/><path class="cls-4" d="M908.45,1200.7H660q-32.91-26.43-65.84-52.9c-17.62-14.16-35.69-28.84-46.54-48.66s-12.86-46.28,1.27-63.92C570,1009,612.46,1016,641,1033.77s52.86,44.23,85.47,52.5c25.7,6.5,52.64.69,79-1.9s55.72-.87,75.19,17.12c18.26,16.86,23,43.47,25.93,68.15A224.73,224.73,0,0,1,908.45,1200.7Z"/><path class="cls-4" d="M432.06,1094.94c-7.42,11.13-19.82,17.74-31.71,23.88l-69,35.7a201.06,201.06,0,0,1-73.16-152.61,53.12,53.12,0,0,0,10.72-.32c18.34-2.49,35-11.9,53.06-16.16,43.73-10.37,93.12,14.34,111,55.57C440.53,1058.2,442.48,1079.31,432.06,1094.94Z"/></svg>